<svg width="156" height="26" viewBox="0 0 156 26" fill="none" xmlns="http://www.w3.org/2000/svg">
<path d="M0.964 26L10.936 0.799998H16.12L26.02 26H19.828L15.076 13.22C14.884 12.716 14.692 12.176 14.5 11.6C14.308 11.024 14.116 10.436 13.924 9.836C13.732 9.212 13.54 8.612 13.348 8.036C13.18 7.436 13.036 6.884 12.916 6.38L13.996 6.344C13.852 6.944 13.684 7.532 13.492 8.108C13.324 8.684 13.144 9.26 12.952 9.836C12.784 10.388 12.592 10.952 12.376 11.528C12.16 12.08 11.956 12.656 11.764 13.256L7.012 26H0.964ZM5.716 21.176L7.624 16.568H19.216L21.088 21.176H5.716ZM29.1641 26V0.799998H34.6361L47.8481 18.8L46.6601 18.62C46.5401 17.828 46.4441 17.072 46.3721 16.352C46.3001 15.632 46.2281 14.924 46.1561 14.228C46.1081 13.532 46.0601 12.824 46.0121 12.104C45.9881 11.384 45.9641 10.604 45.9401 9.764C45.9401 8.924 45.9401 8.012 45.9401 7.028V0.799998H51.8801V26H46.3361L32.5481 7.424L34.3841 7.676C34.5041 8.828 34.6001 9.812 34.6721 10.628C34.7681 11.42 34.8401 12.128 34.8881 12.752C34.9601 13.376 35.0081 13.94 35.0321 14.444C35.0561 14.948 35.0681 15.452 35.0681 15.956C35.0921 16.436 35.1041 16.976 35.1041 17.576V26H29.1641ZM57.6992 26V20.852H61.9472V5.948H57.6992V0.799998H72.3512V5.948H68.0672V20.852H72.3512V26H57.6992ZM78.1719 26V0.799998H83.6439L92.8239 15.74L88.8999 15.704L98.1879 0.799998H103.444V26H97.5039V18.152C97.5039 15.992 97.5519 14.048 97.6479 12.32C97.7679 10.592 97.9599 8.876 98.2239 7.172L98.9079 9.044L91.9239 19.88H89.5479L82.7079 9.116L83.3919 7.172C83.6559 8.78 83.8359 10.436 83.9319 12.14C84.0519 13.82 84.1119 15.824 84.1119 18.152V26H78.1719ZM109.777 26V0.799998H127.345V6.02H115.717V20.78H127.705V26H109.777ZM112.657 15.668V10.7H125.725V15.668H112.657Z" fill="white"/>
<path d="M147.777 26L139.965 14.696L129.957 0.799998H137.409L145.041 11.96L155.229 26H147.777ZM129.776 26L139.389 12.284L144.321 15.128L136.869 26H129.776ZM145.617 14.3L140.721 11.564L147.777 0.799998H154.869L145.617 14.3Z" fill="#A7CCEA"/>
</svg>
