<svg width="21" height="16" viewBox="0 0 21 16" fill="none" xmlns="http://www.w3.org/2000/svg">
<path d="M2.9657 15.7267C2.42213 15.7267 1.95033 15.5267 1.55028 15.1266C1.15022 14.7266 0.950195 14.2548 0.950195 13.7112V2.43768C0.950195 1.89393 1.15022 1.41839 1.55028 1.01105C1.95034 0.603701 2.42215 0.400024 2.9657 0.400024H8.79073L10.2968 1.90612H17.5836C18.1481 1.90612 18.6288 2.10831 19.0258 2.51269C19.4228 2.91709 19.6213 3.39412 19.6213 3.94377H2.9657V13.822L5.22484 5.27267H20.9502L18.6689 13.822C18.4474 14.5307 18.13 15.0253 17.7165 15.3059C17.3031 15.5864 16.742 15.7267 16.0333 15.7267H2.9657Z" fill="#A7CCEA"/>
</svg>
