<svg width="20" height="21" viewBox="0 0 20 21" fill="none" xmlns="http://www.w3.org/2000/svg">
<path d="M18.2245 21L11.201 13.6431C10.6963 14.0626 10.1004 14.3917 9.4136 14.6303C8.72676 14.8689 7.98228 14.9882 7.18016 14.9882C5.1756 14.9882 3.47776 14.2562 2.08666 12.7922C0.695553 11.3281 0 9.56209 0 7.49412C0 5.42614 0.696258 3.66013 2.08877 2.19608C3.48129 0.732026 5.16536 0 7.14099 0C9.11662 0 10.7963 0.732026 12.1802 2.19608C13.564 3.66013 14.2559 5.42752 14.2559 7.49824C14.2559 8.31902 14.1471 9.0817 13.9295 9.78627C13.7119 10.4908 13.3856 11.1542 12.9504 11.7765L20 19.1333L18.2245 21ZM7.16326 12.4078C8.46695 12.4078 9.56593 11.9297 10.4602 10.9735C11.3544 10.0173 11.8016 8.85752 11.8016 7.49412C11.8016 6.13072 11.3532 4.97091 10.4563 4.01471C9.55953 3.0585 8.46184 2.58039 7.16326 2.58039C5.85019 2.58039 4.73709 3.0585 3.82397 4.01471C2.91086 4.97091 2.45431 6.13072 2.45431 7.49412C2.45431 8.85752 2.90958 10.0173 3.82013 10.9735C4.7307 11.9297 5.84507 12.4078 7.16326 12.4078Z" fill="white"/>
</svg>
