<svg width="11" height="11" viewBox="0 0 11 11" fill="none" xmlns="http://www.w3.org/2000/svg">
<path d="M4.48584 10.6788L4.23682 9.12869C4.11411 9.08505 3.97804 9.02069 3.82862 8.93562C3.67919 8.85055 3.55197 8.76642 3.44696 8.68324L1.9946 9.34111L0.73584 7.0958L2.03971 6.13245C2.03181 6.0809 2.02635 6.01306 2.02335 5.92893C2.02034 5.84481 2.01883 5.77302 2.01883 5.71355C2.01883 5.6601 2.02034 5.59377 2.02335 5.51455C2.02635 5.43532 2.03181 5.36503 2.03971 5.30368L0.73584 4.34369L1.9946 2.11307L3.43459 2.77094C3.5377 2.69154 3.66548 2.6078 3.81792 2.51972C3.97035 2.43165 4.10999 2.36578 4.23682 2.32213L4.48584 0.772583H6.98584L7.223 2.3193C7.35362 2.36295 7.49617 2.42881 7.65067 2.51689C7.80517 2.60496 7.93191 2.68965 8.0309 2.77094L9.47991 2.11307L10.7358 4.34369L9.40825 5.28615C9.41616 5.35541 9.42453 5.43163 9.43338 5.5148C9.44223 5.59798 9.44666 5.67025 9.44666 5.7316C9.44666 5.79296 9.44223 5.86325 9.43338 5.94247C9.42453 6.02169 9.41917 6.09198 9.41728 6.15334L10.7268 7.0958L9.46522 9.34111L8.01286 8.68324C7.90785 8.76642 7.78167 8.85252 7.6343 8.94155C7.48694 9.03057 7.35379 9.09295 7.23486 9.12869L6.98584 10.6788H4.48584ZM5.71805 7.38194C6.17914 7.38194 6.57098 7.22066 6.89355 6.89808C7.21613 6.5755 7.37742 6.18367 7.37742 5.72258C7.37742 5.26338 7.21613 4.87201 6.89355 4.54849C6.57098 4.22497 6.17914 4.06321 5.71805 4.06321C5.25507 4.06321 4.86277 4.22497 4.54113 4.54849C4.2195 4.87201 4.05869 5.26338 4.05869 5.72258C4.05869 6.18367 4.2195 6.5755 4.54113 6.89808C4.86277 7.22066 5.25507 7.38194 5.71805 7.38194Z" fill="#A7CCEA"/>
</svg>
